<svg width="30" height="30" viewBox="0 0 30 30" fill="none" xmlns="http://www.w3.org/2000/svg">
<path d="M10.0403 30C11.2726 30 12.2715 28.8807 12.2715 27.5C12.2715 26.1193 11.2726 25 10.0403 25C8.80808 25 7.80914 26.1193 7.80914 27.5C7.80914 28.8807 8.80808 30 10.0403 30Z" fill="#F3F3F3"/>
<path d="M25.6587 30C26.891 30 27.8899 28.8807 27.8899 27.5C27.8899 26.1193 26.891 25 25.6587 25C24.4265 25 23.4276 26.1193 23.4276 27.5C23.4276 28.8807 24.4265 30 25.6587 30Z" fill="#F3F3F3"/>
<path d="M29.6192 4.43594C29.4624 4.22114 29.265 4.04813 29.0411 3.92949C28.8173 3.81084 28.5727 3.74953 28.3251 3.75001H7.10427L6.67686 1.03281C6.63129 0.743383 6.49615 0.4812 6.29519 0.292319C6.09423 0.103438 5.8403 -6.17512e-05 5.578 2.76408e-08H1.1156C0.819724 2.76408e-08 0.535967 0.131697 0.326751 0.366117C0.117536 0.600538 0 0.918481 0 1.25C0 1.58152 0.117536 1.89947 0.326751 2.13389C0.535967 2.36831 0.819724 2.5 1.1156 2.5H4.64229L7.82593 22.7172C7.8715 23.0067 8.00664 23.2688 8.2076 23.4577C8.40856 23.6466 8.66249 23.7501 8.92479 23.75H26.7744C27.0703 23.75 27.354 23.6183 27.5632 23.3839C27.7724 23.1495 27.89 22.8316 27.89 22.5C27.89 22.1685 27.7724 21.8506 27.5632 21.6161C27.354 21.3817 27.0703 21.25 26.7744 21.25H9.8605L9.46725 18.75H26.317C26.7039 18.7495 27.0787 18.5992 27.378 18.3246C27.6774 18.0499 27.8829 17.6679 27.9597 17.243L29.9678 5.99298C30.0162 5.72072 30.01 5.43981 29.9497 5.17054C29.8894 4.90128 29.7765 4.65037 29.6192 4.43594Z" fill="#F3F3F3"/>
</svg>
