<svg width="33" height="33" viewBox="0 0 33 33" fill="none" xmlns="http://www.w3.org/2000/svg">
<path d="M16.5 28.875C16.086 28.8745 15.6818 28.7494 15.3398 28.516C10.2745 25.0774 8.08112 22.7197 6.87133 21.2457C4.29321 18.1036 3.05893 14.8777 3.09373 11.3844C3.13434 7.38117 6.34604 4.125 10.2532 4.125C13.0943 4.125 15.062 5.72537 16.208 7.05826C16.2443 7.10006 16.2892 7.13358 16.3395 7.15654C16.3899 7.17951 16.4446 7.1914 16.5 7.1914C16.5553 7.1914 16.6101 7.17951 16.6604 7.15654C16.7108 7.13358 16.7557 7.10006 16.792 7.05826C17.9379 5.72408 19.9057 4.125 22.7468 4.125C26.6539 4.125 29.8656 7.38117 29.9062 11.385C29.941 14.879 28.7055 18.1049 26.1286 21.2463C24.9189 22.7204 22.7255 25.0781 17.6601 28.5166C17.3181 28.7498 16.9139 28.8747 16.5 28.875Z" fill="#F3F3F3"/>
</svg>
