<svg width="35" height="35" viewBox="0 0 35 35" fill="none" xmlns="http://www.w3.org/2000/svg">
<path d="M17.5 3.82812C9.96133 3.82812 3.82812 9.96133 3.82812 17.5C3.82812 25.0387 9.96133 31.1719 17.5 31.1719C25.0387 31.1719 31.1719 25.0387 31.1719 17.5C31.1719 9.96133 25.0387 3.82812 17.5 3.82812ZM17.5 9.43359C17.8515 9.43359 18.1952 9.53783 18.4874 9.73313C18.7797 9.92843 19.0075 10.206 19.1421 10.5308C19.2766 10.8555 19.3118 11.2129 19.2432 11.5577C19.1746 11.9025 19.0053 12.2191 18.7568 12.4677C18.5082 12.7163 18.1915 12.8856 17.8467 12.9541C17.502 13.0227 17.1446 12.9875 16.8198 12.853C16.4951 12.7185 16.2175 12.4907 16.0222 12.1984C15.8269 11.9061 15.7227 11.5625 15.7227 11.2109C15.7227 10.7396 15.9099 10.2875 16.2432 9.95417C16.5765 9.62085 17.0286 9.43359 17.5 9.43359ZM21.875 24.8828H13.6719V22.6953H16.6797V16.6797H14.4922V14.4922H18.8672V22.6953H21.875V24.8828Z" fill="#F3F3F3"/>
</svg>
