<svg width="43" height="43" viewBox="0 0 43 43" fill="none" xmlns="http://www.w3.org/2000/svg">
<circle cx="21.5" cy="21.5" r="21.5" fill="#F3F3F3"/>
<path d="M27.8331 10.3331C29.3789 10.3377 30.8601 10.9538 31.9531 12.0469C33.0462 13.1399 33.6623 14.6211 33.6669 16.1669V27.8331C33.6623 29.3789 33.0462 30.8601 31.9531 31.9531C30.8601 33.0462 29.3789 33.6623 27.8331 33.6669H16.1669C14.6211 33.6623 13.1399 33.0462 12.0469 31.9531C10.9538 30.8601 10.3377 29.3789 10.3331 27.8331V16.1669C10.3377 14.6211 10.9538 13.1399 12.0469 12.0469C13.1399 10.9538 14.6211 10.3377 16.1669 10.3331H27.8331ZM27.8331 8H16.1669C11.675 8 8 11.675 8 16.1669V27.8331C8 32.325 11.675 36 16.1669 36H27.8331C32.325 36 36 32.325 36 27.8331V16.1669C36 11.675 32.325 8 27.8331 8Z" fill="#1B1B1D"/>
<path d="M29.5831 16.167C29.237 16.167 28.8987 16.0644 28.6109 15.8721C28.3231 15.6798 28.0988 15.4065 27.9663 15.0867C27.8339 14.7669 27.7992 14.4151 27.8668 14.0756C27.9343 13.7361 28.1009 13.4243 28.3457 13.1796C28.5904 12.9348 28.9023 12.7681 29.2417 12.7006C29.5812 12.6331 29.9331 12.6678 30.2528 12.8002C30.5726 12.9327 30.8459 13.157 31.0382 13.4447C31.2305 13.7325 31.3331 14.0709 31.3331 14.417C31.3336 14.6469 31.2887 14.8747 31.2009 15.0873C31.1132 15.2998 30.9843 15.4929 30.8217 15.6555C30.6591 15.8181 30.466 15.947 30.2534 16.0348C30.0409 16.1226 29.8131 16.1675 29.5831 16.167ZM22 17.3332C22.923 17.3332 23.8253 17.607 24.5928 18.1198C25.3602 18.6326 25.9584 19.3614 26.3116 20.2142C26.6649 21.0669 26.7573 22.0053 26.5772 22.9106C26.3971 23.8159 25.9527 24.6474 25.3 25.3001C24.6473 25.9528 23.8157 26.3972 22.9105 26.5773C22.0052 26.7574 21.0668 26.665 20.2141 26.3117C19.3613 25.9585 18.6324 25.3604 18.1196 24.5929C17.6068 23.8254 17.3331 22.9231 17.3331 22.0001C17.3345 20.7628 17.8266 19.5765 18.7015 18.7016C19.5764 17.8267 20.7627 17.3346 22 17.3332ZM22 15.0001C20.6155 15.0001 19.2622 15.4107 18.111 16.1798C16.9599 16.949 16.0627 18.0423 15.5328 19.3213C15.003 20.6004 14.8644 22.0079 15.1345 23.3658C15.4046 24.7236 16.0713 25.9709 17.0503 26.9499C18.0292 27.9288 19.2765 28.5955 20.6344 28.8656C21.9922 29.1357 23.3997 28.9971 24.6788 28.4673C25.9579 27.9375 27.0511 27.0403 27.8203 25.8891C28.5895 24.738 29 23.3846 29 22.0001C29 20.1436 28.2625 18.3631 26.9497 17.0504C25.637 15.7376 23.8565 15.0001 22 15.0001Z" fill="#1B1B1D"/>
</svg>
