<svg width="43" height="43" viewBox="0 0 43 43" fill="none" xmlns="http://www.w3.org/2000/svg">
<circle cx="21.5" cy="21.5" r="21.5" fill="#F3F3F3"/>
<path d="M36 12.7253C34.9122 13.1939 33.7612 13.5026 32.5834 13.6417C33.8212 12.9231 34.752 11.7816 35.2013 10.4313C34.0311 11.1096 32.7529 11.5856 31.4216 11.8388C30.861 11.2563 30.1868 10.793 29.4399 10.4769C28.6931 10.1608 27.8891 9.99852 27.0771 10C23.7892 10 21.1284 12.5995 21.1284 15.8039C21.1261 16.2496 21.1776 16.694 21.2819 17.1276C18.9242 17.018 16.6156 16.4218 14.5037 15.377C12.3918 14.3322 10.5232 12.8619 9.01731 11.0602C8.48901 11.9431 8.20962 12.9505 8.20833 13.9771C8.20833 15.9896 9.26744 17.7685 10.8667 18.8107C9.91917 18.7884 8.99109 18.5398 8.16121 18.0859V18.1578C8.16121 20.9729 10.2154 23.3148 12.9341 23.8479C12.4229 23.983 11.896 24.0515 11.3669 24.0515C10.9915 24.0522 10.6169 24.0161 10.2486 23.9437C11.0044 26.2497 13.2042 27.9268 15.81 27.9747C13.6926 29.5924 11.093 30.4668 8.41979 30.4604C7.94529 30.4597 7.47123 30.4317 7 30.3765C9.71946 32.098 12.8806 33.0086 16.1072 32.9999C27.0644 32.9999 33.0505 24.1534 33.0505 16.4807C33.0505 16.2292 33.0438 15.9776 33.0317 15.732C34.1936 14.9127 35.1988 13.8945 36 12.7253Z" fill="#1B1B1D"/>
</svg>
