<svg width="43" height="43" viewBox="0 0 43 43" fill="none" xmlns="http://www.w3.org/2000/svg">
<circle cx="21.5" cy="21.5" r="20.5" fill="white" stroke="white" stroke-width="2"/>
<path d="M36.7969 15.1338C36.7969 12.4092 34.7928 10.2174 32.3165 10.2174C28.9622 10.0605 25.5413 10 22.0453 10H20.9554C17.4679 10 14.041 10.0605 10.6867 10.218C8.21638 10.218 6.21228 12.4219 6.21228 15.1465C6.06092 17.3013 5.99674 19.4568 6.00037 21.6123C5.99431 23.7678 6.06293 25.9252 6.20623 28.0847C6.20623 30.8094 8.21033 33.0193 10.6806 33.0193C14.2045 33.1828 17.8191 33.2554 21.4943 33.2494C25.1756 33.2615 28.7801 33.1848 32.308 33.0193C34.7844 33.0193 36.7885 30.8094 36.7885 28.0847C36.9338 25.9232 37.0004 23.7678 36.9943 21.6062C37.008 19.4508 36.9422 17.2933 36.7969 15.1338ZM18.5336 27.5519V15.6545L27.3129 21.6002L18.5336 27.5519Z" fill="#1B1B1D"/>
</svg>
